<?xml version="1.0" encoding="UTF-8" standalone="no"?>
<svg
   xmlns:dc="http://purl.org/dc/elements/1.1/"
   xmlns:cc="http://creativecommons.org/ns#"
   xmlns:rdf="http://www.w3.org/1999/02/22-rdf-syntax-ns#"
   xmlns:svg="http://www.w3.org/2000/svg"
   xmlns="http://www.w3.org/2000/svg"
   viewBox="0 0 124.0875 77.925003"
   height="77.925003"
   width="124.0875"
   xml:space="preserve"
   version="1.1"
   id="svg2"><metadata
     id="metadata8"><rdf:RDF><cc:Work
         rdf:about=""><dc:format>image/svg+xml</dc:format><dc:type
           rdf:resource="http://purl.org/dc/dcmitype/StillImage" /></cc:Work></rdf:RDF></metadata><defs
     id="defs6" /><g
     transform="matrix(1.25,0,0,-1.25,0,77.925)"
     id="g10"><g
       transform="scale(0.1,0.1)"
       id="g12"><path
         id="path14"
         style="fill:#0a8137;fill-opacity:1;fill-rule:nonzero;stroke:none"
         d="m 713.359,623.242 -27.187,-74.883 41.445,0 10.196,28.692 40.546,0.058 -0.058,-205.324 -22.957,-0.047 -16.672,-46.164 114.016,-0.047 17.125,46.211 -31.961,0.098 -0.047,205.195 47.703,0 -0.188,-28.633 28.774,0.04 27.144,74.902 -227.879,-0.098" /><path
         id="path16"
         style="fill:#0a8137;fill-opacity:1;fill-rule:nonzero;stroke:none"
         d="m 253.926,623.281 -17.129,-46.347 28.992,0.058 0,-134.59 c 0,-24.746 -4.48,-38.515 -16.609,-50.789 -9.5,-9.66 -25.664,-15.636 -42.188,-15.636 -20.058,0 -38.008,6.718 -49.258,18.378 -11.296,11.192 -16.777,29.649 -16.777,56.426 l -0.039,172.5 -84.043,-0.222 -17.0898,-46.164 35.7695,0.214 0,-128.164 c 0,-120.293 93.8593,-129.629 122.5903,-129.629 74.375,0 122.429,48.028 122.429,122.364 l 0.285,135.254 21.36,0 16.59,46.347 -104.883,0" /><path
         id="path18"
         style="fill:#0a8137;fill-opacity:1;fill-rule:nonzero;stroke:none"
         d="m 659.883,577.168 0.156,-251.68 -35.098,-0.019 c 0,0 -163.437,172.187 -174.382,183.73 0.046,-24.355 -0.11,-137.5 -0.11,-137.5 l 32.227,0 -16.731,-46.445 -105.398,0 16.797,46.445 18.125,0 0,205.235 -38.391,0 16.672,46.347 64.688,0 c 0,0 124.929,-130.34 168.261,-176.152 0,14.094 -0.097,129.805 -0.097,129.805 l -31.399,0 16.535,46.496 107.942,0 -16.684,-46.496 -23.113,0.234" /><path
         id="path20"
         style="fill:#0a8137;fill-opacity:1;fill-rule:nonzero;stroke:none"
         d="m 188.828,120.098 c -14.015,0 -26.894,5.195 -31.348,12.539 -3.996,6.621 -3.996,11.328 -3.996,37.715 l 0.149,20 c 0,2.539 -4.445,2.804 -6.375,2.804 l -1.34,-0.031 1.926,5.059 0.359,0 c 1.992,0 11.094,-0.43 14.531,-0.43 3.836,0 13.438,0.547 13.438,0.547 l -2.012,-5.078 c -2.715,-0.067 -6.875,-0.52 -6.875,-4.473 l 0.039,-34.578 c 0,-9.895 0,-26.418 20.801,-26.418 15.449,0 22.617,7.598 22.617,24.043 l 0.098,38.555 c 0,2.753 -5.637,2.773 -5.637,2.773 l 1.801,5.059 0.254,0 c 1.133,0 6.219,-0.43 10.254,-0.43 4.461,0 10.426,0.625 10.426,0.625 l -1.786,-5.156 -1.308,0.05 c -1.875,0 -5,-0.597 -5,-4.335 l -0.528,-34.68 c 0,-5.039 -0.671,-17.434 -6.972,-24.695 -5.696,-6.516 -15.891,-9.465 -23.516,-9.465" /><path
         id="path22"
         style="fill:#0a8137;fill-opacity:1;fill-rule:nonzero;stroke:none"
         d="m 305.332,121.738 c -10.547,11.719 -17.019,18.555 -21.855,23.692 -2.579,2.754 -4.707,5.011 -6.789,7.265 l -7.782,8.594 c -7.402,8.242 -13.386,14.824 -16.113,17.637 0.344,-5.469 0.039,-26.77 0.039,-26.77 l 0.469,-30.211 -7.363,0.321 -10.247,-0.528 1.954,4.969 c 2.406,0.063 6.171,0.441 6.171,3.859 l 0.079,3.145 c 0.082,2.91 0.277,7.656 0.277,16.785 l 0.074,38.899 c 0,3.339 -3.687,3.71 -5.262,3.71 l 1.336,5.079 0.239,0 c 0.789,0 3.191,-0.274 5.3,-0.274 2.461,0 5.801,0.352 5.801,0.352 21.953,-24.805 22.012,-24.883 21.953,-25.02 0.188,0 23.477,-25.117 29.629,-31.445 -0.281,9.719 0,44.59 0,44.59 l -0.39,11.601 c 0.031,0.071 0.273,0.11 0.586,0.11 1.445,0 5.156,-0.344 8.203,-0.344 3.82,0 9.89,0.547 9.89,0.547 l -1.836,-5.067 c -1.543,-0.109 -7.215,-0.246 -7.215,-3.273 0,0 -0.742,-30.859 -0.742,-39.609 0,-8.77 0.364,-21.914 0.633,-28.438 l -6.961,-0.262 -0.078,0.086" /><path
         id="path24"
         style="fill:#0a8137;fill-opacity:1;fill-rule:nonzero;stroke:none"
         d="m 336.25,126.785 1.238,-0.015 c 1.797,0 4.836,0.378 4.836,2.937 l 0,60.02 c 0,3.066 -4.316,3.507 -6.894,3.507 -0.918,0 -1.563,-0.011 -1.563,-0.011 l 1.758,5.019 c 0,0 0.117,0.02 0.273,0.02 1.321,0 6.961,-0.449 12.625,-0.449 6.332,0 12.805,0.605 12.805,0.605 l -1.875,-5.117 c -2.324,-0.078 -4.863,-0.567 -4.863,-3.613 l 0,-59.981 c 0,-1.113 0.754,-1.914 2.285,-2.383 1.34,-0.437 2.961,-0.539 4.082,-0.539 l 1.289,0.031 -1.824,-4.961 c -0.039,0 -0.09,0 -0.188,0 -1.132,0 -5.976,0.411 -12.254,0.411 -7.042,0 -13.703,-0.614 -13.703,-0.614 l -0.371,0 2.344,5.133" /><path
         id="path26"
         style="fill:#0a8137;fill-opacity:1;fill-rule:nonzero;stroke:none"
         d="m 404.648,121.563 c -0.195,0.117 -7.91,18.308 -16.894,38.164 -5.43,12.089 -11.57,23.972 -14.18,29.082 l -0.793,1.523 c -1.328,2.617 -4.258,2.969 -5.867,2.969 -0.742,0 -1.25,-0.067 -1.25,-0.067 l 1.809,5.028 c 0,0 0.054,0.039 0.164,0.039 0.761,0 3.894,-0.449 7.441,-0.449 3.965,0 7.852,0.507 7.852,0.507 l 21.535,-45.996 c 3.523,-8.203 4.656,-11.609 6.031,-16.601 0.598,2.89 10.813,26.543 10.922,26.797 0,0 10.359,22.265 12.398,26.816 2.063,4.465 3.235,8.809 3.235,8.887 l 0.215,0 c 1.054,0 4.902,-0.449 7.57,-0.449 3.047,0 7.254,0.605 7.254,0.605 l -1.985,-5.117 c -2.046,-0.028 -5.105,-0.742 -8.171,-7.324 -2.168,-4.551 -10.606,-22.852 -10.606,-22.852 l -18.379,-41.562 -8.301,0" /><path
         id="path28"
         style="fill:#0a8137;fill-opacity:1;fill-rule:nonzero;stroke:none"
         d="m 537.793,191.465 c 0.117,-0.086 0.066,-23.36 0.117,-25.145 13.047,0.75 20.078,6.297 20.078,15.879 0,8.66 -8.554,9.617 -15,9.617 -4.289,0 -5.129,-0.351 -5.195,-0.351 m 60.488,-71.035 c -11.726,0 -20.918,0.691 -32.011,12.851 -14.075,15.371 -28.36,31.543 -28.719,32.051 0.359,-3.008 0.398,-26.926 0.398,-33.293 0,-6.344 0.391,-10.094 0.391,-10.094 -0.07,-0.031 -0.164,-0.07 -0.43,-0.07 -0.969,0 -3.75,0.391 -7.617,0.391 -4.617,0 -12.559,-0.614 -12.559,-0.614 l 1.922,5.078 c 2.961,0.086 4.797,0.567 5.649,1.415 0.508,0.566 0.508,1.101 0.508,1.457 l 0.027,60.183 c 0,3.164 -4.395,3.516 -6.262,3.516 l 0.852,4.961 c 0,0 0.117,0.039 0.312,0.039 1.516,0 8.008,-0.43 12.832,-0.43 2.332,0 3.711,0.117 5.352,0.227 2.226,0.144 4.953,0.281 11.035,0.281 7.187,0 20.82,-2.891 20.82,-13.867 0,-11.328 -10.793,-18.418 -20.84,-21.25 31.036,-31.746 37.969,-36.758 52.43,-36.758 1.086,0 2.172,0.117 3.234,0.266 6.211,0.925 15.782,6.062 16.043,15.933 0.11,5.539 0.286,12.961 -16.57,14.035 -13.262,0.821 -20.273,6.836 -20.715,17.746 -0.242,6.004 2.082,11.825 6.457,16.395 5.457,5.637 13.25,8.738 22.039,8.738 11.184,0 15.969,-5.281 16.02,-5.301 l -0.996,-13.847 -5.149,0.449 c -0.183,0.215 -1.125,5.82 -1.14,5.996 -0.239,1.836 -5.41,4.375 -13,4.375 -8.477,0 -13.614,-4.941 -13.614,-12.48 0,-7.735 5.43,-11.7 17.774,-12.801 12.93,-1.145 20.039,-7.492 20.039,-17.883 0,-15.039 -16.68,-27.695 -34.512,-27.695" /><path
         id="path30"
         style="fill:#0a8137;fill-opacity:1;fill-rule:nonzero;stroke:none"
         d="M 39.1602,75.5273 C 27.7148,75.5273 17.7422,69.707 13.7305,60.7227 11.7578,56.3477 10.7422,50.8984 10.7422,45 10.7422,31.5625 15.0977,22.8906 24.8438,16.9727 29.6172,14.043 35.1484,12.5 40.7813,12.5 c 16.7578,0 28.0078,13.2422 28.0078,32.8906 0,12.6563 -4.8047,21.543 -14.3243,26.4063 -4.582,2.4219 -9.8554,3.7304 -15.3046,3.7304 M 36.3555,4.66797 C 14.2695,4.66797 0,19.3164 0,41.8945 c 0,16.9141 7.36328,29.4336 21.3086,36.25 6.8164,3.3203 14.4922,5.0977 22.0586,5.0977 22.2969,0 36.1562,-13.2031 36.1562,-34.4141 0,-25.5468 -18.1171,-44.16013 -43.1679,-44.16013" /><path
         id="path32"
         style="fill:#0a8137;fill-opacity:1;fill-rule:nonzero;stroke:none"
         d="m 647.539,126.25 1.211,-0.02 c 1.816,0 4.883,0.364 4.883,2.93 l 0,60.059 c 0,3.078 -3.692,3.484 -5.879,3.484 -0.789,0 -1.328,-0.027 -1.328,-0.027 l 1.777,5.019 c 0,0 0.09,0.039 0.227,0.039 1.062,0 5.73,-0.449 11.367,-0.449 6.297,0 14.031,0.586 14.031,0.586 l -1.887,-5.078 c -2.507,-0.117 -6.082,-0.43 -6.082,-3.633 l 0,-60 c 0,-1.094 0.762,-1.863 2.278,-2.39 1.316,-0.403 2.957,-0.52 4.082,-0.52 l 1.258,0.059 -1.766,-4.981 c -0.031,-0.027 -0.09,-0.027 -0.207,-0.027 -1.106,0 -5.938,0.437 -12.266,0.437 -7.09,0 -13.679,-0.605 -13.679,-0.605 l -0.364,-0.012 2.344,5.129" /><path
         id="path34"
         style="fill:#0a8137;fill-opacity:1;fill-rule:nonzero;stroke:none"
         d="m 773.352,122.266 -12.817,-0.614 1.836,4.942 c 0.258,0.136 6.418,0.398 6.418,3.152 l 0.09,21.348 c 0,3.828 -3.051,7.98 -7.68,14.328 -1.629,2.254 -3.418,4.754 -5.379,7.566 -12.168,17.891 -13.886,18.391 -20.129,18.391 -7.019,0 -15.242,-0.18 -15.796,-0.461 l 0.066,-61.211 c 0,-1.113 0.781,-1.875 2.234,-2.383 1.313,-0.429 2.942,-0.508 4.035,-0.508 l 1.36,0.071 -1.77,-5.032 -0.246,0 c -1.094,0 -5.965,0.45 -12.273,0.45 -7.039,0 -13.684,-0.653 -13.684,-0.653 l 1.985,5.133 1.203,-0.015 c 1.843,0 4.91,0.378 4.91,2.937 l 0.078,61.348 -0.059,0 c -0.234,0 -1.726,0.183 -9.035,0.183 -4.961,0 -10.027,-0.066 -10.027,-0.066 -4.27,0 -6.223,-6.043 -6.223,-6.074 l -3.191,2.031 4.109,11.113 29.531,-0.449 30.247,0.391 c 11.066,0 13.703,-4.512 20.031,-15.567 1.179,-2.012 2.476,-4.297 3.98,-6.75 2.461,-4.07 4.524,-7.429 6.34,-10.262 l 3.379,-5.476 c 1.289,3.211 10.398,16.98 16.426,26.082 3.078,4.648 5.449,8.223 5.832,8.887 1.199,2.07 1.347,3.027 1.347,3.027 0.04,0.02 0.125,0.059 0.274,0.059 0.601,0 2.476,-0.391 4.766,-0.391 2.722,0 9.597,0.625 9.597,0.625 l 0.305,0.02 -0.5,-1.239 c -1.016,-0.539 -5.625,-2.492 -8.567,-6.75 -0.679,-1.015 -1.863,-2.597 -3.386,-4.636 -7.149,-9.661 -22,-29.778 -22,-36.672 l 0.078,-19.532 c 0,-1.132 0.711,-1.914 2.058,-2.371 1.25,-0.468 2.774,-0.558 3.848,-0.558 0.957,0 1.652,0.05 1.652,0.05 l -1.957,-5.078 -13.296,0.614" /><path
         id="path36"
         style="fill:#0a8137;fill-opacity:1;fill-rule:nonzero;stroke:none"
         d="m 93.5742,11.4648 c 3.211,0.0586 6.7308,0.7618 6.7308,5.3907 l 0,58.5547 c -0.032,2.4804 -3.8402,2.832 -6.1253,2.832 -0.9649,0 -1.6602,-0.0781 -1.6602,-0.0781 l 1.8438,4.9804 c 0.0703,0.0391 0.1289,0.0391 0.1758,0.0391 0.7929,0 4.0625,-0.4492 11.6909,-0.4492 8.665,0 26.016,0.6445 26.016,0.6445 6.555,0 8.445,-1.7187 8.535,-1.7578 0.098,-0.1758 -0.293,-4.3555 -0.293,-7.6367 l 0.137,-2.4414 c -0.078,-0.2149 -4.473,-2.5782 -4.687,-2.6953 -0.293,3.75 -1.719,7.4609 -12.059,7.4609 L 112.52,76.1914 c 0.031,-0.1172 -0.469,-1.875 -0.469,-5.5469 0,0 -0.047,-17.0898 -0.078,-19.6289 l 26.894,0.1953 -3.222,-7.5 -23.555,-0.1171 0.129,-29.004 c 0,-1.1132 0.679,-1.9335 2.019,-2.4218 1.211,-0.4688 2.754,-0.5664 3.836,-0.5664 1.059,0 1.828,0.0586 1.828,0.0586 L 117.98,6.73828 c -0.05,-0.05859 -0.128,-0.05859 -0.226,-0.05859 -0.918,0 -4.981,0.41015 -11.445,0.41015 -7.1879,0 -14.6293,-0.52734 -14.6293,-0.52734 l -0.3516,-0.05859 2.2461,4.96089" /><path
         id="path38"
         style="fill:#0a8137;fill-opacity:1;fill-rule:nonzero;stroke:none"
         d="m 493.613,121.738 c -8.691,0.207 -19.968,0.567 -26.289,0.567 -2.781,0 -5.312,-0.215 -7.5,-0.36 -1.679,-0.129 -3.136,-0.207 -4.316,-0.207 l -2.149,-0.031 1.973,4.887 c 0.383,0.136 5.945,0.176 5.945,5.476 0,1.211 0.051,3.789 0.078,7.207 0.122,6.868 0.344,17.168 0.344,26.883 0,7.953 -0.222,15.5 -0.344,20.149 l -0.078,4.218 c -0.007,2.481 -2.996,2.825 -4.761,2.825 -0.786,0 -1.328,-0.051 -1.328,-0.051 l 1.863,4.883 c 0,0.019 0.078,0.019 0.215,0.019 1.172,0 5.722,-0.351 9.968,-0.351 8.657,0 25.942,0.644 25.942,0.644 6.59,0 8.512,-1.68 8.582,-1.758 0.039,-0.195 -0.32,-4.316 -0.32,-7.597 l 0.156,-2.461 c -0.071,-0.176 -4.438,-2.559 -4.641,-2.715 -0.359,3.769 -1.75,7.473 -12.082,7.473 l -11.394,-0.118 c 0.078,-0.082 -0.45,-1.886 -0.45,-5.539 l -0.047,-19.66 2.071,0.219 11.121,-0.02 13.996,0.02 -3.488,-8.078 c -0.059,-0.02 -0.254,-0.059 -0.645,-0.059 -1.387,0 -5.254,0.164 -10.371,0.164 -3.934,0 -7.812,-0.105 -10.281,-0.183 l -2.324,-0.028 0.117,-15.148 c 0,-6.094 0.23,-10.535 0.554,-13.231 l 2.161,0.047 c 2.859,-0.078 7.632,-0.32 10.574,-0.32 4.258,0 9.316,0.105 12.461,0.496 -0.137,0.156 0.594,9.609 0.594,9.609 l 6.527,-4.597 0.137,-8.879 c 0,-3.035 0.339,-4.395 0.339,-4.395 l -1.816,-0.293 -11.094,0.293" /><path
         id="path40"
         style="fill:#0a8137;fill-opacity:1;fill-rule:nonzero;stroke:none"
         d="M 255.84,6.83594 C 245.332,18.4961 238.906,25.293 234.094,30.4102 c -2.649,2.7539 -4.797,5.039 -6.899,7.3632 l -6.199,6.836 c -8.152,9.0234 -14.734,16.3672 -17.695,19.375 0.371,-5.4688 0.066,-26.7188 0.066,-26.7188 l 0.227,-29.98044 c -0.071,-0.01953 -0.293,-0.03907 -0.672,-0.03907 -1.074,0 -3.227,0.15625 -6.469,0.15625 -4.519,0 -10.164,-0.5664 -10.164,-0.5664 l 1.887,4.98046 c 2.429,0.0586 6.179,0.4492 6.179,3.8672 l 0.071,3.1055 c 0.144,2.9101 0.254,7.6562 0.254,16.7773 0,0 0.105,33.3203 0.105,38.8281 0,2.5196 -2.734,3.7305 -8.398,3.7305 l -1.485,0.0977 c -0.078,0.1171 -0.078,0.1367 1.985,4.9804 0.047,0.0391 0.203,0.0391 0.437,0.0391 1.621,0 6.973,-0.293 9.082,-0.293 2.442,0 5.813,0.3125 5.813,0.3125 21.922,-24.7461 21.98,-24.8047 21.922,-24.9804 0.168,0 23.41,-25.1172 29.558,-31.3868 l -0.027,44.5313 -0.313,11.6015 c 0.02,0.0391 0.227,0.0586 0.52,0.0586 1.426,0 5.176,-0.332 8.25,-0.332 3.711,0 8.594,0.6055 8.594,0.6055 l -1.844,-5.0391 c -1.289,-0.1758 -5.949,-0.293 -5.949,-3.2812 0,0 -0.742,-30.8789 -0.742,-39.5899 0,-8.7695 0.41,-21.8554 0.644,-28.37889 l -6.934,-0.33203 -0.058,0.09766" /><path
         id="path42"
         style="fill:#0a8137;fill-opacity:1;fill-rule:nonzero;stroke:none"
         d="m 400.691,77.5 c -4.336,0 -5.171,-0.3516 -5.183,-0.3711 l 0.105,-25.1367 c 2.075,0.1953 7.153,0.1953 11.711,2.207 5.559,2.4414 8.36,7.0508 8.36,13.6914 0,6.6407 -4.579,9.6094 -14.993,9.6094 M 441.992,0.0195313 C 438.75,1.81641 434.746,6.46484 430.145,11.875 c -1.981,2.3438 -4.04,4.7656 -6.2,7.1289 -14.14,15.6055 -28.359,31.6211 -28.711,32.0117 0.411,-2.9297 0.45,-26.8554 0.45,-33.2226 0,-6.3477 0.351,-10.07816 0.351,-10.07816 -0.058,-0.01953 -0.176,-0.01953 -0.39,-0.01953 -1.055,0 -3.797,0.33203 -7.579,0.33203 -4.668,0 -12.597,-0.5664 -12.597,-0.5664 l 1.894,4.99996 c 2.95,0.1368 4.793,0.5664 5.672,1.4649 0.539,0.5664 0.539,1.0547 0.539,1.3867 l 0.996,35.7031 c 0,9.2969 -0.527,16.4844 -0.793,20.7032 -0.105,1.7968 -0.203,3.0664 -0.203,3.75 0,3.125 -4.375,3.4765 -6.269,3.4765 l 0.832,5 c 0,0 0.125,0.0195 0.332,0.0195 1.472,0 7.996,-0.4492 12.879,-0.4492 2.238,0 3.652,0.1172 5.273,0.2344 2.285,0.1563 4.961,0.293 10.996,0.293 7.196,0 20.801,-2.8711 20.801,-13.9063 0,-11.6406 -8.809,-16.6797 -17.5,-20.039 -0.938,-0.3711 -3.008,-0.8789 -3.281,-0.8789 1.98,-1.1133 9.648,-8.9258 18.547,-18.0274 7.3,-7.4414 15.418,-15.8008 21.804,-22.07031 3.875,-3.80859 5.664,-5.42968 10.711,-8.730465 L 459.297,0 441.992,0.0195313" /><path
         id="path44"
         style="fill:#0a8137;fill-opacity:1;fill-rule:nonzero;stroke:none"
         d="m 321.531,76.3086 c -11.238,0 -21.062,-5.7227 -25.027,-14.5703 -1.965,-4.4336 -2.988,-9.8438 -2.988,-15.6055 0,-13.3008 4.289,-21.914 13.945,-27.793 4.695,-2.8906 10.156,-4.375 15.769,-4.375 16.543,0 27.649,13.1055 27.649,32.5586 0,12.461 -4.766,21.2305 -14.149,26.1133 -4.535,2.4024 -9.777,3.6719 -15.199,3.6719 M 318.77,5.42969 c -22.305,0 -36.75,14.72661 -36.75,37.57811 0,17.1094 7.453,29.7461 21.503,36.5625 6.946,3.3789 14.622,5.1367 22.278,5.1367 22.539,0 36.562,-13.3203 36.562,-34.7656 0,-25.7812 -18.3,-44.51171 -43.593,-44.51171" /><path
         id="path46"
         style="fill:#0a8137;fill-opacity:1;fill-rule:nonzero;stroke:none"
         d="m 464.016,12.0898 c 2.105,0.0586 4.089,0.4102 4.089,3.0079 l 0.411,35.5273 -0.411,25.7031 c -0.222,0 -1.66,0.1953 -8.945,0.1953 -4.98,0 -10.117,-0.0781 -10.117,-0.0781 -4.219,0 -6.145,-5.9961 -6.145,-6.0742 l -3.242,2.0703 4.172,11.0742 29.453,-0.4297 32.949,0.2735 -1.269,-12.2852 -3.34,-0.2539 c -0.195,0.2539 -0.117,2.832 -1.66,4.5117 -0.879,0.8594 -2.051,1.3477 -3.574,1.3477 -7,0 -15.617,-0.2344 -16.153,-0.4883 l 0,-3.3008 c -0.136,-4.6875 -0.379,-13.164 -0.379,-22.1289 0,-11.0937 0.196,-22.9297 0.379,-29.9609 l 0.059,-5.7031 c 0,-1.1133 0.801,-1.9336 2.305,-2.4219 1.328,-0.4102 2.937,-0.5078 4.05,-0.5078 l 1.274,0.0586 -1.738,-4.98051 c 0,0 -0.137,-0.03906 -0.246,-0.03906 -1.094,0 -5.938,0.48828 -12.254,0.48828 -6.965,0 -11.516,-0.625 -11.516,-0.625 l -0.41,-0.05859 2.258,5.07808" /><path
         id="path48"
         style="fill:#0a8137;fill-opacity:1;fill-rule:nonzero;stroke:none"
         d="m 572.371,11.9727 1.223,-0.0977 c 1.816,0 4.844,0.3906 4.844,2.9492 l 0,28.3008 c -0.059,-0.0977 -0.723,-0.0977 -1.973,-0.0977 -3.223,0 -10.332,0.1563 -20.723,0.1563 -14.804,0 -21.328,-0.2734 -21.328,-0.2734 l 0.195,-28.0274 c 0,-1.0937 0.735,-1.875 2.239,-2.3828 1.355,-0.3516 2.937,-0.4492 4.07,-0.4492 l 1.262,0.039 -1.75,-5.01949 c -0.02,0 -0.137,0 -0.235,0 -1.093,0 -5.925,0.44922 -12.257,0.44922 -7,0 -13.641,-0.625 -13.641,-0.625 l 1.973,5.13677 1.25,-0.0586 c 1.828,0 4.824,0.4101 4.824,2.9101 l 0.937,36.1133 -0.937,23.8867 c 0,3.0078 -3.645,3.4766 -5.867,3.4766 -0.762,0 -1.301,-0.0391 -1.301,-0.0391 l 1.738,5.0391 c 0,0 0.156,0 0.254,0 1.047,0 5.715,-0.4492 11.355,-0.4492 6.332,0 14.028,0.6054 14.028,0.6054 l -1.887,-5.0976 c -2.91,-0.0782 -6.055,-0.5274 -6.055,-3.5938 l 0,-23.9258 c 0.039,0.0391 0.86,0.0782 2.188,0.0782 4.023,0 12.676,-0.2149 19.277,-0.2149 8.926,0 22.578,0.3321 22.578,0.3321 l -0.214,23.6914 c 0,3.0859 -3.653,3.5351 -5.833,3.5351 -0.781,0 -1.343,-0.0976 -1.343,-0.0976 l 1.707,5.039 c 0.066,0 0.117,0 0.246,0 1.094,0 5.75,-0.4101 11.394,-0.4101 6.309,0 14.012,0.5859 14.012,0.5859 l -1.883,-5.0781 c -2.929,-0.0781 -6.074,-0.5274 -6.074,-3.5742 0,-0.4883 -0.059,-1.6211 -0.176,-3.2813 -0.312,-4.2383 -0.84,-11.8945 -0.84,-20.2539 0,-10.957 0.528,-23.1641 0.821,-30.3711 0.117,-3.0273 0.195,-5.2148 0.195,-6.0547 0,-2.5976 4.434,-2.8515 6.328,-2.8515 l 1.289,0.0586 -1.765,-5.05864 c -0.032,0 -0.121,0 -0.227,0 -1.101,0 -5.976,0.44922 -12.246,0.44922 -7.078,0 -13.672,-0.625 -13.672,-0.625 l -0.344,0 2.344,5.17582" /><path
         id="path50"
         style="fill:#0a8137;fill-opacity:1;fill-rule:nonzero;stroke:none"
         d="m 858.848,43.1055 c 1.101,0 5.222,-0.2539 10.007,-0.2539 5.762,0 11.625,0.3125 11.625,0.3125 l -4.203,9.8632 -3.55,8.5743 c -1.372,3.3007 -2.414,5.8007 -3.032,7.6367 -1.773,-4.5313 -10.847,-25.4688 -11.14,-26.1719 0.039,0.0391 0.117,0.0391 0.293,0.0391 M 761.008,0.820313 c 0,0 4.453,3.437497 8.14,7.324217 4.055,4.19927 20.149,23.61327 26.899,32.42187 0,0 2.527,3.0859 2.723,3.3594 -1.172,1.4258 -2.098,2.6953 -2.364,3.1055 -1.316,2.0117 -2.676,4.0625 -4.211,6.4648 -1.746,2.8516 -3.777,5.9961 -6.328,9.7461 -9.258,13.5547 -10.879,14.9219 -17.625,14.9219 l 1.68,4.9609 7.82,-0.4297 c 2.278,0 8.586,0.5078 8.586,0.5078 0.227,-0.0781 11.68,-17.9297 17.5,-26.4258 l 2.449,-3.6718 c -0.172,0.3906 0.735,1.6211 1.536,2.7148 2.812,3.7891 6.652,8.6719 10.125,13.2031 4.042,5.2344 7.914,10.1563 8.402,10.9571 1.199,2.0703 1.289,3.0468 1.289,3.0468 0.059,0.0586 0.23,0.0586 0.535,0.0586 1.094,0 3.938,-0.2343 6.082,-0.2343 2.746,0 7.356,0.2148 7.356,0.2148 0.07,-0.4492 -4.61,-2.6562 -7.95,-7.0703 l -5.285,-7.0313 C 823.586,62.5195 817.09,53.8477 812.727,48.1641 l -1.426,-1.7969 c -0.586,-0.6445 -0.168,-1.1914 0.254,-1.7188 0.547,-0.6836 1.179,-1.5234 1.328,-1.7968 3.289,-4.8633 14.004,-20.2539 19.336,-27.7539 1.199,-1.7579 1.707,-2.3829 2.09,-2.3829 0.41,0 0.613,0.254 1.035,0.9766 l 13.34,28.7891 18.257,41.3672 8.352,0.1953 c 0.254,-0.2735 3.84,-10.5274 12.656,-30.1367 10.188,-22.461 14.141,-29.8829 19.524,-39.3165 0.672,-1.2304 3.164,-3.6523 6.804,-3.6523 l 0.813,14.6484 5.34,-0.5468 c 0.175,-0.1563 1.14,-6.1524 1.14,-6.1914 0.254,-1.836 5.625,-4.4922 13.45,-4.4922 4.793,0 8.808,1.5429 11.308,4.375 2.024,2.1484 3.074,5.0586 3.074,8.4179 0,7.9688 -5.933,12.2071 -18.757,13.3204 -13.321,1.1523 -20.606,7.7343 -20.606,18.457 0,4.8437 1.582,9.7461 4.668,14.1211 5.449,7.1484 14.375,11.1914 24.539,11.1914 3.664,0 7.016,-0.5469 10.012,-1.6602 4.433,-1.5625 6.418,-3.7109 6.496,-3.8086 l -1.035,-14.2968 -5.317,0.5078 c -0.144,0.1953 -1.148,6.2109 -1.148,6.2304 -0.234,1.7969 -5.617,4.4727 -13.41,4.4727 -8.328,0 -13.797,-4.4727 -14.356,-11.6797 -0.019,-9.0625 5.867,-13.2617 18.633,-14.4141 13.328,-1.1718 20.676,-7.7539 20.676,-18.496 0,-4.8633 -1.621,-9.7071 -4.692,-14.1211 -5.457,-7.07036 -14.382,-11.15239 -24.546,-11.15239 -3.711,0 -7.09,0.56641 -10.039,1.66016 l -3.704,0.42969 -0.339,-1.28907 c 0,0 -0.098,0 -0.215,0 -1.242,0 -7.824,0.56641 -11.391,0.56641 -3.953,0 -7.535,-0.625 -7.535,-0.625 L 883.984,35 c -0.019,-0.0195 -0.293,-0.0195 -0.918,-0.0195 -1.867,0 -6.789,0.0781 -14.621,0.0781 -10.386,0 -13.789,-0.1758 -13.789,-0.1758 l -2.554,-5.7031 c -2.524,-5.4492 -5.09,-10.8984 -5.93,-12.8711 -0.496,-1.1523 -0.496,-2.0898 0,-2.832 1.191,-1.7774 4.988,-1.9922 6.601,-1.9922 l -0.988,-4.9219 c 0,0 -0.176,0 -0.437,0 -2.364,0 -13.887,0.46875 -17.254,0.46875 -5.278,-0.05859 -10.508,-0.46875 -10.508,-0.46875 -4.16,6.4453 -10.606,15.8984 -15.332,22.793 l -3.274,4.8437 c -0.39,0.6055 -0.722,1.1328 -1.015,1.6211 L 801.934,34.1992 793.457,23.418 C 786.688,14.8242 778.301,4.14063 777.773,3.24219 776.504,1.03516 775.613,0.625 775.598,0.585938 l -15.032,-0.175782 0.442,0.410157" /><path
         id="path52"
         style="fill:#0a8137;fill-opacity:1;fill-rule:nonzero;stroke:none"
         d="m 661.504,11.8164 c 2.101,0.0586 4.101,0.4492 4.101,3.0078 l 0.372,35.5078 -0.34,25.7227 c -0.215,0 -1.633,0.2148 -8.989,0.2148 -4.929,0 -10.066,-0.0976 -10.066,-0.0976 -4.277,0 -6.199,-5.9961 -6.238,-6.0547 l -3.156,2.0508 4.101,11.0742 29.492,-0.4102 32.949,0.293 -1.269,-12.3242 -3.34,-0.2344 c -0.203,0.2539 -0.066,2.832 -1.57,4.4922 -0.852,0.8789 -2.082,1.3867 -3.684,1.3867 -6.816,0 -15.566,-0.2539 -16.152,-0.5078 l 0,-3.3008 c -0.117,-4.6484 -0.36,-13.1445 -0.36,-22.0898 0,-11.1719 0.196,-23.0469 0.36,-29.9805 l 0.117,-5.7422 c 0,-1.1328 0.762,-1.914 2.305,-2.3828 1.301,-0.4101 2.89,-0.5078 4.023,-0.5078 l 1.25,0.0391 -1.738,-5.00004 c 0,0 -0.086,0 -0.195,0 -1.133,0 -5.977,0.44922 -12.293,0.44922 -7.036,0 -11.555,-0.625 -11.555,-0.625 l -0.371,-0.0586 2.246,5.07812" /><path
         id="path54"
         style="fill:#0a8137;fill-opacity:1;fill-rule:nonzero;stroke:none"
         d="m 755.625,6.62109 -8.34,0.23438 c -7.578,0.23437 -16.387,0.50781 -22.265,0.50781 -4.832,0 -13.875,-0.58594 -13.875,-0.58594 l 1.89,4.92186 c 0.278,0.1172 1.711,0.1172 3.149,0.7422 1.89,0.918 2.859,2.4805 2.859,4.668 0,1.2304 0.012,3.75 0.078,7.207 0.117,6.8164 0.293,17.0703 0.293,26.7578 0,7.8906 -0.215,15.4102 -0.332,20.0196 l -0.039,4.1992 c 0,2.5195 -3.809,2.8515 -6.063,2.8515 -0.96,0 -1.632,-0.0586 -1.632,-0.0586 l 1.867,4.8829 0.308,0 c 1.438,0 7.219,-0.3516 11.379,-0.3516 8.653,0 25.852,0.6445 25.852,0.6445 6.59,0 8.476,-1.6797 8.531,-1.7383 0.063,-0.2148 -0.242,-4.3164 -0.242,-7.5976 l 0.156,-2.4219 c -0.117,-0.2344 -4.453,-2.5586 -4.668,-2.7148 -0.351,3.789 -1.738,7.4023 -12.051,7.4023 l -11.347,-0.0781 c 0.137,-0.1172 -0.41,-1.8945 -0.41,-5.5274 l -0.047,-19.5507 2.027,0.2148 11.106,-0.0586 16.093,0.0586 -3.457,-8.0664 c -0.058,0 -0.398,0 -0.91,0 -2.012,0 -7.176,0.1562 -12.254,0.1562 -3.926,0 -7.761,-0.1562 -10.246,-0.2148 l -2.281,-0.0195 c 0.144,-3.2032 0.125,-13.3789 0.125,-13.3789 l 0,-1.7188 c 0,-6.0547 0.195,-10.4883 0.566,-13.1836 l 1.524,0.0977 c 2.785,-0.0977 8.039,-0.3516 11.086,-0.3516 4.246,0 6.675,0.1172 9.824,0.5274 l 0.508,9.5703 6.558,-4.6094 0.051,-8.8477 c 0,-3.00777 0.391,-4.37496 0.391,-4.37496 l 0.09,-0.27344 -0.325,0 -5.527,0.05859" /><path
         id="path56"
         style="fill:#0a8137;fill-opacity:1;fill-rule:nonzero;stroke:none"
         d="m 974.23,72.5703 3.629,0 c 2.579,0 5.371,0.2813 5.371,3.2422 0,2.625 -2.222,3.3867 -4.265,3.3867 l -4.735,0 0,-6.6289 z m -1.437,7.8906 6.395,0 c 3.839,0 5.57,-1.5742 5.57,-4.6992 0,-2.7422 -1.977,-4.082 -4.438,-4.4726 l 5.063,-7.8516 -1.594,0 -5.105,7.8516 -4.454,0 0,-7.8516 -1.437,0 0,17.0234 z m -7.715,-8.5078 c 0,-7.3125 5.637,-13.164 13.008,-13.164 7.297,0 12.891,5.9375 12.891,13.2226 0,7.3438 -5.497,13.0977 -12.891,13.0977 -7.461,0 -13.008,-5.6953 -13.008,-13.1563 z m 27.332,0 c 0,-8 -6.402,-14.414 -14.414,-14.414 -7.969,0 -14.383,6.414 -14.383,14.414 0,7.9883 6.414,14.4141 14.383,14.4141 8.012,0 14.414,-6.4258 14.414,-14.4141" /><path
         id="path58"
         style="fill:none;stroke:#0a8137;stroke-width:0.54593003;stroke-linecap:butt;stroke-linejoin:miter;stroke-miterlimit:10;stroke-dasharray:none;stroke-opacity:1"
         d="m 974.23,72.5703 3.629,0 c 2.579,0 5.371,0.2813 5.371,3.2422 0,2.625 -2.222,3.3867 -4.265,3.3867 l -4.735,0 0,-6.6289 z m -1.437,7.8906 6.395,0 c 3.839,0 5.57,-1.5742 5.57,-4.6992 0,-2.7422 -1.977,-4.082 -4.438,-4.4726 l 5.063,-7.8516 -1.594,0 -5.105,7.8516 -4.454,0 0,-7.8516 -1.437,0 0,17.0234 z m -7.715,-8.5078 c 0,-7.3125 5.637,-13.164 13.008,-13.164 7.297,0 12.891,5.9375 12.891,13.2226 0,7.3438 -5.497,13.0977 -12.891,13.0977 -7.461,0 -13.008,-5.6953 -13.008,-13.1563 z m 27.332,0 c 0,-8 -6.402,-14.414 -14.414,-14.414 -7.969,0 -14.383,6.414 -14.383,14.414 0,7.9883 6.414,14.4141 14.383,14.4141 8.012,0 14.414,-6.4258 14.414,-14.4141 z" /><path
         id="path60"
         style="fill:#0a8137;fill-opacity:1;fill-rule:nonzero;stroke:none"
         d="m 941.16,561.117 3.637,0 c 2.574,0 5.371,0.266 5.371,3.231 0,2.636 -2.258,3.406 -4.289,3.406 l -4.719,0 0,-6.637 z m -1.441,7.879 6.394,0 c 3.848,0 5.547,-1.582 5.547,-4.695 0,-2.758 -1.953,-4.074 -4.426,-4.485 l 5.09,-7.812 -1.633,0 -5.066,7.836 -4.465,0 0,-7.836 -1.441,0 0,16.992 z m -7.727,-8.508 c 0,-7.289 5.653,-13.113 12.996,-13.113 7.336,0 12.895,5.863 12.895,13.191 0,7.309 -5.512,13.079 -12.895,13.079 -7.437,0 -12.996,-5.684 -12.996,-13.157 z m 27.356,0 c 0,-7.957 -6.418,-14.394 -14.407,-14.394 -7.976,0 -14.394,6.437 -14.394,14.394 0,8 6.418,14.414 14.394,14.414 7.989,0 14.407,-6.414 14.407,-14.414" /><path
         id="path62"
         style="fill:none;stroke:#0a8137;stroke-width:0.51976001;stroke-linecap:butt;stroke-linejoin:miter;stroke-miterlimit:10;stroke-dasharray:none;stroke-opacity:1"
         d="m 941.16,561.117 3.637,0 c 2.574,0 5.371,0.266 5.371,3.231 0,2.636 -2.258,3.406 -4.289,3.406 l -4.719,0 0,-6.637 z m -1.441,7.879 6.394,0 c 3.848,0 5.547,-1.582 5.547,-4.695 0,-2.758 -1.953,-4.074 -4.426,-4.485 l 5.09,-7.812 -1.633,0 -5.066,7.836 -4.465,0 0,-7.836 -1.441,0 0,16.992 z m -7.727,-8.508 c 0,-7.289 5.653,-13.113 12.996,-13.113 7.336,0 12.895,5.863 12.895,13.191 0,7.309 -5.512,13.079 -12.895,13.079 -7.437,0 -12.996,-5.684 -12.996,-13.157 z m 27.356,0 c 0,-7.957 -6.418,-14.394 -14.407,-14.394 -7.976,0 -14.394,6.437 -14.394,14.394 0,8 6.418,14.414 14.394,14.414 7.989,0 14.407,-6.414 14.407,-14.414 z" /></g></g></svg>